<svg width="26" height="29" viewBox="0 0 26 29" fill="none" xmlns="http://www.w3.org/2000/svg">
<path fill-rule="evenodd" clip-rule="evenodd" d="M25.5174 18.9119C25.5174 28.18 18.5742 28.8952 12.0785 28.8952C5.58176 28.8952 0.769306 25.9768 0.0460536 19.4572C-0.457351 14.9146 3.27551 11.6942 5.90493 9.4257C7.04915 8.43855 7.9844 7.63168 8.27069 6.97457C8.89906 5.52982 8.99395 3.2052 8.55537 0C11.7124 1.28656 13.9109 3.04194 15.1501 5.26687C16.1046 6.98028 16.145 8.97387 16.1761 10.5081C16.2056 11.9617 16.2268 13.0028 17.0089 13.0028C18.0806 13.0028 19.7273 11.3175 21.9498 7.94618C24.3276 10.7663 25.5174 14.4216 25.5174 18.9119ZM6.28388 21.6621C5.80409 19.4526 7.18882 17.0496 10.4372 14.4528C10.7463 16.4678 11.3814 17.9317 12.3427 18.8439C14.6196 21.0073 15.2453 22.7557 13.6746 23.9863C12.1924 25.1476 10.5328 25.0177 9.57411 24.7872C8.33793 24.4884 6.69623 23.5643 6.28388 21.6621Z" fill="#EEEEEE"/>
</svg>
