<svg width="26" height="26" viewBox="0 0 26 26" fill="none" xmlns="http://www.w3.org/2000/svg">
<path fill-rule="evenodd" clip-rule="evenodd" d="M13.8305 0.815741C13.3569 0.394753 12.6431 0.394753 12.1695 0.815741L0.919566 10.8158C0.403578 11.2744 0.357103 12.0645 0.815753 12.5805C1.2744 13.0964 2.06449 13.1429 2.58047 12.6843L3.00002 12.3114V24.25C3.00002 24.9404 3.55967 25.5 4.25002 25.5H9.875V18C9.875 17.3096 10.4347 16.75 11.125 16.75H14.875C15.5654 16.75 16.125 17.3096 16.125 18V25.5H21.75C22.4404 25.5 23 24.9404 23 24.25V12.3114L23.4195 12.6843C23.9355 13.1429 24.7256 13.0964 25.1843 12.5805C25.6429 12.0645 25.5965 11.2744 25.0805 10.8158L13.8305 0.815741Z" fill="#EEEEEE" fill-opacity="0.933333"/>
</svg>
