<svg width="14" height="18" viewBox="0 0 14 18" fill="none" xmlns="http://www.w3.org/2000/svg">
<path fill-rule="evenodd" clip-rule="evenodd" d="M0 0H5.745C9.465 0 12.195 1.125 12.195 4.425C12.195 6.135 11.25 7.77 9.69 8.34V8.43C11.685 8.88 13.14 10.275 13.14 12.72C13.14 16.305 10.185 18 6.225 18H0V0ZM5.49 7.425C7.995 7.425 9.06 6.435 9.06 4.89C9.06 3.135 7.89 2.475 5.55 2.475H3.195V7.425H5.49ZM5.895 15.51C8.55 15.51 10.02 14.55 10.02 12.54C10.02 10.635 8.595 9.825 5.895 9.825H3.195V15.525H5.895V15.51Z" fill="black"/>
</svg>
