<svg width="30" height="30" viewBox="0 0 30 30" fill="none" xmlns="http://www.w3.org/2000/svg">
<path fill-rule="evenodd" clip-rule="evenodd" d="M15 6.42857C13.2214 6.42857 11.7857 4.99286 11.7857 3.21429C11.7857 1.43571 13.2214 0 15 0C16.7786 0 18.2143 1.43571 18.2143 3.21429C18.2143 4.99286 16.7786 6.42857 15 6.42857ZM30 19.2857C30 21.6643 28.0929 23.5714 25.7143 23.5714H23.5714C21.1929 23.5714 19.2857 21.6643 19.2857 19.2857L23.5714 10.7143H21.4286C20.25 10.7143 19.2857 9.75 19.2857 8.57143H17.1429V25.7143C18.0429 25.7143 19.2857 26.6786 19.2857 27.8571H21.4286C22.3286 27.8571 23.5714 28.8214 23.5714 30H6.42857C6.42857 28.8214 7.67143 27.8571 8.57143 27.8571H10.7143C10.7143 26.6786 11.9571 25.7143 12.8571 25.7143H12.9214L12.8571 8.57143H10.7143C10.7143 9.75 9.75 10.7143 8.57143 10.7143H6.42857L10.7143 19.2857C10.7143 21.6643 8.80714 23.5714 6.42857 23.5714H4.28571C1.90714 23.5714 0 21.6643 0 19.2857L4.28571 10.7143H2.14286V8.57143H8.57143C8.57143 7.39286 9.53571 6.42857 10.7143 6.42857H19.2857C20.4643 6.42857 21.4286 7.39286 21.4286 8.57143H27.8571V10.7143H25.7143L30 19.2857ZM5.35714 12.8571L2.14286 19.2857H8.57143L5.35714 12.8571ZM27.8571 19.2857L24.6429 12.8571L21.4286 19.2857H27.8571Z" fill="white"/>
</svg>
