<svg width="30" height="30" viewBox="0 0 30 30" fill="none" xmlns="http://www.w3.org/2000/svg">
<path fill-rule="evenodd" clip-rule="evenodd" d="M30 27.8614C30 28.4286 29.7371 28.9726 29.2692 29.3736C28.8013 29.7747 28.1667 30 27.505 30H2.5025C2.17378 30.0003 1.84821 29.945 1.54445 29.8373C1.24068 29.7296 0.964677 29.5716 0.732233 29.3724C0.499789 29.1731 0.315469 28.9366 0.189823 28.6762C0.0641769 28.4158 -0.000327639 28.1368 1.25137e-06 27.855V25.7143C1.25137e-06 20.0721 10 17.1429 10 17.1429C10 17.1429 10.5725 16.2664 10 15C7.8975 13.6714 7.64 11.5929 7.5 6.42857C7.9325 1.25786 12.1675 0 15 0C17.8325 0 22.0675 1.25571 22.5 6.42857C22.36 11.5929 22.1025 13.6714 20 15C19.4275 16.2643 20 17.1429 20 17.1429C20 17.1429 30 20.0721 30 25.7143V27.8614Z" fill="white"/>
</svg>
