<svg width="26" height="26" viewBox="0 0 26 26" fill="none" xmlns="http://www.w3.org/2000/svg">
<path fill-rule="evenodd" clip-rule="evenodd" d="M13 25.5C19.9035 25.5 25.5 19.9035 25.5 13C25.5 6.09644 19.9035 0.5 13 0.5C6.09644 0.5 0.5 6.09644 0.5 13C0.5 19.9035 6.09644 25.5 13 25.5ZM13 4.25C10.2386 4.25 8 6.48858 8 9.25C8 12.0114 10.2386 14.25 13 14.25C15.7614 14.25 18 12.0114 18 9.25C18 6.48858 15.7614 4.25 13 4.25ZM21.2578 18.6415C19.4565 21.2731 16.4299 23 12.9999 23C9.57005 23 6.54348 21.2733 4.74213 18.6416C5.38813 17.5116 6.60513 16.75 8 16.75H18C19.3949 16.75 20.6118 17.5115 21.2578 18.6415Z" fill="white"/>
</svg>
