<svg width="24" height="24" viewBox="0 0 24 24" fill="none" xmlns="http://www.w3.org/2000/svg">
<g clip-path="url(#clip0_561_80)">
<path d="M15.1094 0V11.3423C15.1094 12.417 14.8664 13.209 14.3291 13.7184C13.7919 14.2279 13.0384 14.4825 12.0434 14.4825C11.0405 14.4825 10.2641 14.2258 9.71486 13.7123C9.16567 13.199 8.8908 12.4091 8.8908 11.3422V0H4.80981V11.3423C4.80981 13.3244 5.49377 14.8608 6.81513 15.9513C8.13639 17.042 9.88741 17.5871 12.0446 17.5871C14.1779 17.5871 15.9001 17.042 17.2176 15.9513C18.5349 14.8608 19.1904 13.3244 19.1904 11.3423V0H15.1094Z" fill="black"/>
<path d="M23.1741 20.7935H0.825928V23.9999H23.1741V20.7935Z" fill="black"/>
</g>
<defs>
<clipPath id="clip0_561_80">
<rect width="24" height="24" fill="white"/>
</clipPath>
</defs>
</svg>
