<svg width="30" height="30" viewBox="0 0 30 30" fill="none" xmlns="http://www.w3.org/2000/svg">
<path fill-rule="evenodd" clip-rule="evenodd" d="M27.5 15C27.5 21.9035 21.9035 27.5 15 27.5C8.09644 27.5 2.5 21.9035 2.5 15C2.5 8.09644 8.09644 2.5 15 2.5C21.9035 2.5 27.5 8.09644 27.5 15ZM15 22.5C15.6904 22.5 16.25 21.9404 16.25 21.25V11.7678L19.1161 14.6339C19.6042 15.122 20.3957 15.122 20.8839 14.6339C21.372 14.1458 21.372 13.3542 20.8839 12.8661L15.8839 7.86611C15.3957 7.37796 14.6042 7.37796 14.1161 7.86611L9.11611 12.8661C8.62796 13.3542 8.62796 14.1458 9.11611 14.6339C9.60427 15.122 10.3957 15.122 10.8839 14.6339L13.75 11.7678V21.25C13.75 21.9404 14.3096 22.5 15 22.5Z" fill="#4ECCA3"/>
</svg>
