<svg width="26" height="26" viewBox="0 0 26 26" fill="none" xmlns="http://www.w3.org/2000/svg">
<path fill-rule="evenodd" clip-rule="evenodd" d="M25.5 13C25.5 19.9035 19.9035 25.5 13 25.5C6.09644 25.5 0.5 19.9035 0.5 13C0.5 6.09644 6.09644 0.5 13 0.5C19.9035 0.5 25.5 6.09644 25.5 13ZM13 20.5C13.6904 20.5 14.25 19.9404 14.25 19.25V9.76776L17.1161 12.6339C17.6042 13.122 18.3957 13.122 18.8839 12.6339C19.372 12.1458 19.372 11.3542 18.8839 10.8661L13.8839 5.86611C13.3957 5.37796 12.6042 5.37796 12.1161 5.86611L7.11611 10.8661C6.62796 11.3542 6.62796 12.1458 7.11611 12.6339C7.60427 13.122 8.39572 13.122 8.88389 12.6339L11.75 9.76776V19.25C11.75 19.9404 12.3096 20.5 13 20.5Z" fill="#4ECCA3"/>
</svg>
