<svg width="25" height="22" viewBox="0 0 25 22" fill="none" xmlns="http://www.w3.org/2000/svg">
<path d="M22.1088 7.73584C21.4679 7.14911 20.5366 6.77986 19.5 6.77986C19.091 6.77986 18.6982 6.83736 18.3333 6.94306V12.2628C18.7723 12.4253 18.987 12.5157 19.5 12.5157C20.5366 12.5157 21.4679 12.1464 22.1088 11.5597C22.663 11.0523 23 10.3824 23 9.64778C23 8.91321 22.663 8.24323 22.1088 7.73584Z" fill="#EEEEEE" stroke="#EEEEEE" stroke-width="4" stroke-miterlimit="10" stroke-linecap="round" stroke-linejoin="round"/>
<path d="M18.3334 17.2956V2L10.1667 5.8239H3.16667C2.52234 5.8239 2 6.2519 2 6.77987V12.5157C2 13.0437 2.52234 13.4717 3.16667 13.4717H10.1667L18.3334 17.2956Z" fill="#EEEEEE" stroke="#EEEEEE" stroke-width="4" stroke-miterlimit="10" stroke-linecap="round" stroke-linejoin="round"/>
<path d="M8.99988 13.4717H4.33319V19.2075H8.99988V13.4717Z" fill="#EEEEEE" stroke="#EEEEEE" stroke-width="4" stroke-miterlimit="10" stroke-linecap="round" stroke-linejoin="round"/>
</svg>
