<svg width="26" height="26" viewBox="0 0 26 26" fill="none" xmlns="http://www.w3.org/2000/svg">
<path fill-rule="evenodd" clip-rule="evenodd" d="M0.500002 13C0.500002 6.0965 6.0965 0.5 13 0.5C19.9036 0.5 25.5 6.0965 25.5 13C25.5 19.9036 19.9036 25.5 13 25.5C6.0965 25.5 0.500002 19.9036 0.500002 13ZM13 5.5C12.3096 5.5 11.75 6.05963 11.75 6.75V16.2322L8.88388 13.3661C8.39575 12.878 7.60425 12.878 7.11613 13.3661C6.628 13.8543 6.628 14.6457 7.11613 15.1339L12.1161 20.1339C12.6043 20.622 13.3958 20.622 13.8839 20.1339L18.8839 15.1339C19.372 14.6457 19.372 13.8543 18.8839 13.3661C18.3957 12.878 17.6043 12.878 17.1161 13.3661L14.25 16.2322V6.75C14.25 6.05963 13.6904 5.5 13 5.5Z" fill="#4ECCA3"/>
</svg>
