<svg width="26" height="23" viewBox="0 0 26 23" fill="none" xmlns="http://www.w3.org/2000/svg">
<path fill-rule="evenodd" clip-rule="evenodd" d="M3 0C1.61929 0 0.5 1.11929 0.5 2.5V16.25C0.5 17.6308 1.61929 18.75 3 18.75H8.73224L12.1161 22.1339C12.6042 22.622 13.3958 22.622 13.8839 22.1339L17.2677 18.75H23C24.3808 18.75 25.5 17.6308 25.5 16.25V2.5C25.5 1.11929 24.3808 0 23 0H3ZM4.25 9.375C4.25 7.99425 5.36929 6.875 6.75 6.875H6.765C8.14571 6.875 9.265 7.99425 9.265 9.375C9.265 10.7557 8.14571 11.875 6.765 11.875H6.75C5.36929 11.875 4.25 10.7557 4.25 9.375ZM13.015 6.875C11.6343 6.875 10.515 7.99425 10.515 9.375C10.515 10.7557 11.6343 11.875 13.015 11.875H13.03C14.4106 11.875 15.53 10.7557 15.53 9.375C15.53 7.99425 14.4106 6.875 13.03 6.875H13.015ZM19.2799 6.875C17.8992 6.875 16.7799 7.99425 16.7799 9.375C16.7799 10.7557 17.8992 11.875 19.2799 11.875H19.2949C20.6756 11.875 21.7949 10.7557 21.7949 9.375C21.7949 7.99425 20.6756 6.875 19.2949 6.875H19.2799Z" fill="white"/>
</svg>
