<svg width="20" height="20" viewBox="0 0 20 20" fill="none" xmlns="http://www.w3.org/2000/svg">
<path fill-rule="evenodd" clip-rule="evenodd" d="M9.9999 20C15.5228 20 19.9999 15.5228 19.9999 10C19.9999 4.47715 15.5228 0 9.9999 0C4.47709 0 -6.10352e-05 4.47715 -6.10352e-05 10C-6.10352e-05 15.5228 4.47709 20 9.9999 20ZM10.9999 5.20001C10.9999 4.64773 10.5522 4.20001 9.9999 4.20001C9.4477 4.20001 8.9999 4.64773 8.9999 5.20001V9.6C8.9999 10.7046 9.8954 11.6 11 11.6L14.8 11.5999C15.3522 11.5999 15.7999 11.1522 15.7999 10.5999C15.7999 10.0476 15.3522 9.5999 14.7999 9.5999L10.9999 9.6V5.20001Z" fill="white"/>
</svg>
